<svg width="43" height="44" viewBox="0 0 43 44" fill="none" xmlns="http://www.w3.org/2000/svg">
<g clip-path="url(#clip0_50_18)">
<path d="M13.766 35.1419C13.766 35.1419 13.7663 35.142 13.767 35.1422L13.766 35.1419ZM13.8276 35.189C13.8311 35.1933 13.8345 35.1978 13.8378 35.2027C13.8416 35.2083 13.8453 35.2144 13.8488 35.2209C13.8493 35.2217 13.8497 35.2225 13.8501 35.2233C13.8671 35.2556 13.8743 35.2893 13.8743 35.3184C13.8743 35.3527 13.8682 35.3819 13.8592 35.406C13.8564 35.4136 13.8534 35.4206 13.8501 35.4272C13.8457 35.4362 13.841 35.4444 13.8362 35.4516C13.8346 35.4496 13.8331 35.4474 13.8315 35.4452C13.8285 35.441 13.8256 35.4365 13.8227 35.4316C13.8204 35.4277 13.8182 35.4237 13.8161 35.4196C13.801 35.3897 13.7919 35.3546 13.7919 35.3184C13.7919 35.2802 13.7996 35.2484 13.8102 35.2227C13.8121 35.2181 13.8141 35.2138 13.8161 35.2096C13.8198 35.2021 13.8237 35.1953 13.8276 35.189ZM6.66246 29.3248C6.66221 29.3248 6.66197 29.3248 6.61988 29.823L6.66197 29.3248L6.64418 29.3233L6.62632 29.3231C6.34315 29.3194 6.09969 29.3392 5.89736 29.3888C5.70034 29.4371 5.4923 29.526 5.34206 29.6999C5.17522 29.8931 5.13741 30.1229 5.16786 30.3222C5.19543 30.5026 5.27711 30.6583 5.35234 30.7739C5.50397 31.0067 5.72442 31.2177 5.88327 31.3567C5.96679 31.4297 6.04218 31.4905 6.09698 31.5332C6.1245 31.5546 6.14711 31.5718 6.16331 31.5839L6.18271 31.5983L6.1885 31.6025L6.19036 31.6038L6.19103 31.6043L6.1913 31.6045C6.19141 31.6046 6.19152 31.6047 6.48395 31.1991L6.19152 31.6047L6.22738 31.6305L6.26723 31.6497C6.52798 31.7751 6.7965 32.0062 7.05954 32.3163C7.31952 32.6227 7.55386 32.9821 7.75254 33.3323C7.95044 33.6812 8.10774 34.0116 8.21559 34.2552C8.26936 34.3766 8.31047 34.4756 8.33784 34.5435C8.35152 34.5774 8.36174 34.6035 8.36837 34.6206L8.37325 34.6333C9.09259 36.9134 11.1527 37.6275 12.8623 37.7996C13.7293 37.8868 14.5488 37.8417 15.1477 37.7762C15.2924 37.7604 15.4249 37.7433 15.5429 37.7264C15.5447 38.5582 15.5498 39.5197 15.5549 40.3744C15.5568 40.692 15.5587 40.9945 15.5604 41.2701C15.5645 41.9232 15.5676 42.4253 15.5676 42.6187C15.5676 42.8129 15.502 42.9895 15.3934 43.0944C15.3065 43.1781 15.1242 43.2824 14.7262 43.215C6.48939 40.2939 0.696777 32.0237 0.696777 22.3261C0.696777 10.1868 9.50872 1.02344 20.9954 1.02344C32.4988 1.02344 41.8378 10.204 41.8378 22.3261C41.8378 32.0307 36.2085 40.296 27.9532 43.1971C27.5602 43.2643 27.3768 43.161 27.288 43.0757C27.1775 42.9695 27.1114 42.7923 27.1114 42.6008C27.1114 42.36 27.1142 41.7935 27.1179 41.0332C27.1198 40.6417 27.122 40.1988 27.1241 39.7225C27.1305 38.3228 27.1369 36.6376 27.1369 35.1307C27.1369 33.4867 26.7486 32.2388 26.1718 31.3689C28.255 31.1024 30.4284 30.7027 32.1413 29.4768C34.1596 28.0324 35.4461 25.5233 35.4461 21.1109C35.4461 19.825 35.2264 18.8308 34.8132 17.9433C34.442 17.1462 33.9243 16.457 33.3195 15.7404C33.6126 14.8038 34.0858 12.4938 33.0013 9.60492L32.9174 9.38139L32.6908 9.30613C32.0916 9.10711 31.3751 9.22573 30.7184 9.43174C30.0419 9.64398 29.3326 9.98073 28.6971 10.3266C28.0588 10.6741 27.4796 11.0391 27.061 11.3165C26.8597 11.4499 26.6946 11.5636 26.577 11.6461C24.8981 11.1761 23.1084 10.9337 21.3353 10.9337C19.562 10.9337 17.7721 11.1762 16.0931 11.6462C15.9755 11.5639 15.8104 11.4506 15.6091 11.3175C15.1905 11.0408 14.6113 10.6766 13.9731 10.3298C13.3376 9.98452 12.6286 9.64819 11.9524 9.4356C11.296 9.22925 10.5804 9.10964 9.98186 9.30542L9.75388 9.37999L9.66937 9.60447C8.58449 12.4861 9.05803 14.8026 9.35114 15.7405C8.74562 16.4632 8.2691 17.155 7.94114 17.9587C7.57888 18.8465 7.4113 19.837 7.4113 21.1109C7.4113 25.5028 8.64016 28.0138 10.6036 29.4656C12.2769 30.7028 14.414 31.1072 16.4937 31.3724C16.1085 31.9648 15.8008 32.725 15.6402 33.6533C15.0558 33.9045 14.1887 34.1639 13.2852 34.0789C12.2907 33.9854 11.1919 33.4713 10.3395 31.891L10.338 31.8883C9.6938 30.7113 8.78177 30.0691 8.03227 29.724C7.65872 29.5521 7.32458 29.4532 7.08109 29.397C6.95911 29.3688 6.85914 29.3512 6.78741 29.3404C6.75152 29.335 6.72261 29.3313 6.70147 29.3289L6.67564 29.3261L6.66725 29.3253L6.66422 29.325L6.663 29.3249L6.66246 29.3248ZM7.65327 30.6764C7.65699 30.6695 7.66092 30.6627 7.66502 30.6563C7.71309 30.6792 7.76191 30.7037 7.81131 30.7297L7.79988 30.7515L7.7994 30.7524L7.65279 30.6773C7.65295 30.677 7.65311 30.6767 7.65327 30.6764ZM7.83532 30.7696L7.84264 30.7465C7.84422 30.7473 7.84581 30.7482 7.84739 30.749C7.85441 30.7528 7.86144 30.7566 7.86848 30.7605C7.90875 30.7826 7.94936 30.8057 7.99022 30.83C7.98795 30.8352 7.98555 30.8402 7.983 30.8452C7.98284 30.8455 7.98269 30.8459 7.98253 30.8462L7.85507 30.7809L7.83582 30.771L7.83501 30.7706L7.83532 30.7696ZM7.64626 30.6907L7.78373 30.7822L7.6973 30.9465C7.67016 30.9299 7.64566 30.9117 7.62414 30.8926C7.62129 30.8795 7.61911 30.8651 7.61798 30.8495C7.61415 30.7967 7.62343 30.7413 7.64626 30.6907ZM7.76692 30.9864L7.81026 30.8491L7.82309 30.8084L7.83276 30.8148L7.95371 30.8953C7.91365 30.9555 7.86362 30.9896 7.82216 31.008C7.80358 31.0027 7.78507 30.9955 7.76692 30.9864ZM7.65316 30.6764L7.65269 30.6773L7.65316 30.6764ZM8.74822 31.4638C8.76299 31.4605 8.77678 31.4585 8.7894 31.4575C8.80099 31.4693 8.81256 31.4813 8.8241 31.4933L8.71329 31.5876L8.70943 31.5909L8.67799 31.6176L8.67034 31.6241L8.52536 31.7475C8.52368 31.7148 8.52882 31.6316 8.59528 31.5528C8.60026 31.5469 8.60558 31.541 8.61127 31.5352C8.61224 31.5342 8.61322 31.5332 8.61421 31.5322C8.62137 31.5259 8.6288 31.5201 8.63646 31.5146C8.63882 31.5128 8.64121 31.5112 8.64362 31.5095C8.67576 31.4878 8.71162 31.4722 8.74822 31.4638ZM8.72295 31.5968L8.82774 31.4971C8.8297 31.4992 8.83166 31.5013 8.83362 31.5033L8.72913 31.6027L8.72339 31.6081L8.69339 31.6367L8.68845 31.6414L8.54763 31.7752C8.54403 31.7743 8.54087 31.7734 8.53813 31.7725L8.68226 31.6355L8.68801 31.63L8.71801 31.6015L8.72295 31.5968ZM8.85033 31.521C8.86046 31.5319 8.87057 31.5428 8.88065 31.5538C8.87281 31.5919 8.85491 31.6394 8.81611 31.6854C8.81114 31.6913 8.80581 31.6972 8.80012 31.703C8.79915 31.704 8.79817 31.705 8.79718 31.706C8.79002 31.7122 8.7826 31.7181 8.77493 31.7236C8.77257 31.7253 8.77018 31.727 8.76777 31.7286C8.73563 31.7504 8.69977 31.7659 8.66317 31.7743C8.6105 31.7864 8.57043 31.7807 8.55065 31.776L8.69811 31.6505L8.70196 31.6473L8.7334 31.6205L8.74106 31.614L8.85033 31.521ZM8.5247 31.7671C8.52362 31.7665 8.52312 31.7661 8.52314 31.7661L8.5247 31.7671ZM9.6838 32.7532C9.68679 32.758 9.68978 32.7628 9.69278 32.7675C9.69567 32.7722 9.69857 32.7768 9.70147 32.7814C9.69044 32.8071 9.67287 32.8363 9.645 32.8642C9.63857 32.8706 9.63159 32.877 9.62401 32.8832C9.61453 32.8898 9.6047 32.8958 9.59463 32.9011C9.58167 32.9079 9.5683 32.9137 9.55471 32.9185L9.5233 32.8797L9.5055 32.8576L9.49219 32.8412L9.48298 32.8298C9.49777 32.8178 9.5127 32.8076 9.52752 32.799C9.54219 32.7904 9.55674 32.7833 9.57093 32.7775C9.59367 32.7682 9.61545 32.7622 9.63525 32.7584C9.64439 32.7567 9.65311 32.7554 9.6613 32.7546C9.66909 32.7538 9.67641 32.7533 9.68316 32.7532C9.68337 32.7532 9.68359 32.7532 9.6838 32.7532ZM9.51344 32.8862L9.54404 32.922C9.52723 32.9271 9.51016 32.9307 9.49321 32.9326C9.47413 32.9348 9.45696 32.9348 9.44195 32.9335C9.42941 32.9324 9.41837 32.9304 9.40897 32.9282C9.40975 32.9261 9.41058 32.9239 9.41148 32.9217C9.41184 32.9209 9.41221 32.92 9.41258 32.9191C9.41935 32.9033 9.42901 32.8866 9.44185 32.8703C9.4506 32.8593 9.46083 32.8485 9.47263 32.8384L9.48071 32.8479L9.495 32.8646L9.51344 32.8862ZM9.35749 32.905C9.35751 32.905 9.35798 32.9054 9.35879 32.9063C9.35787 32.9055 9.35747 32.905 9.35749 32.905ZM10.6868 34.0445C10.6935 34.0423 10.6999 34.0404 10.706 34.0389C10.7029 34.0504 10.6985 34.0628 10.6929 34.0755C10.6893 34.0837 10.6851 34.0922 10.6803 34.1007C10.6726 34.1141 10.6634 34.1278 10.6525 34.1411C10.6497 34.1438 10.6467 34.1463 10.6438 34.1488C10.6328 34.158 10.6213 34.1661 10.6097 34.1731C10.6086 34.1738 10.6075 34.1744 10.6065 34.175C10.594 34.1824 10.5814 34.1885 10.5689 34.1934C10.5651 34.1949 10.5614 34.1963 10.5576 34.1975C10.5476 34.2009 10.5381 34.2034 10.5293 34.2053C10.528 34.2056 10.5267 34.2058 10.5254 34.2061C10.5248 34.2062 10.5242 34.2063 10.5236 34.2064C10.5284 34.1923 10.5353 34.1763 10.545 34.1593C10.549 34.1523 10.5534 34.1451 10.5584 34.1379C10.5614 34.1334 10.5646 34.129 10.5681 34.1245C10.5693 34.1229 10.5705 34.1213 10.5718 34.1198C10.5783 34.1126 10.5851 34.1059 10.5922 34.0997C10.6062 34.0871 10.6213 34.0763 10.6369 34.0672C10.6442 34.063 10.6515 34.0591 10.6589 34.0557C10.6591 34.0555 10.6594 34.0554 10.6596 34.0553C10.6678 34.0515 10.6761 34.0482 10.6845 34.0453C10.6853 34.045 10.686 34.0448 10.6868 34.0445ZM15.4112 35.0941C15.4077 35.0693 15.4081 35.0456 15.4112 35.0242L15.4283 35.0917L15.4112 35.0941ZM15.4117 35.0977L15.4292 35.0951L15.4409 35.1413L15.4226 35.144C15.418 35.1298 15.4142 35.1144 15.4117 35.0977ZM15.4433 35.141L15.432 35.0947L15.4407 35.0934L15.4459 35.1406L15.4433 35.141ZM15.4251 35.1512L15.4429 35.149L15.4497 35.1758L15.4532 35.208C15.443 35.1925 15.4331 35.1736 15.4251 35.1512ZM15.4479 35.1597L15.4452 35.1488L15.4467 35.1486L15.4479 35.1597ZM15.5103 35.1407C15.5119 35.1536 15.512 35.1671 15.5106 35.1806L15.5008 35.1419L15.5103 35.1407ZM15.5091 35.1316L15.4985 35.1331L15.4867 35.0865L15.4982 35.0848C15.5029 35.099 15.5067 35.1146 15.5091 35.1316ZM15.4972 35.0818L15.4859 35.0835L15.4726 35.0309C15.4819 35.0455 15.4904 35.0624 15.4972 35.0818ZM15.4234 34.9762C15.425 34.9775 15.4267 34.9789 15.4284 34.9803L15.4404 35.09L15.4311 35.0913L15.4126 35.0156C15.4152 35.0013 15.4189 34.988 15.4234 34.9762ZM12.0609 35.0383C12.0702 35.0057 12.0834 34.98 12.0978 34.9598L12.0721 35.0414L12.0676 35.0554L12.0507 35.109C12.0507 35.0918 12.0526 35.0727 12.0574 35.052C12.0584 35.0475 12.0596 35.0429 12.0609 35.0383ZM12.124 35.0742C12.1072 35.1247 12.0806 35.1548 12.0601 35.1716C12.0587 35.1672 12.0575 35.1625 12.0563 35.1576C12.0553 35.1533 12.0544 35.1489 12.0537 35.1442L12.0749 35.0693L12.0778 35.0588L12.082 35.0443L12.1104 34.9437C12.1167 34.9364 12.1229 34.9301 12.129 34.9246C12.1388 34.9582 12.1436 35.0036 12.129 35.0577C12.1275 35.0631 12.1259 35.0686 12.124 35.0742Z" fill="#FC0100" stroke="black"/>
</g>
<defs>
<clipPath id="clip0_50_18">
<rect width="42.141" height="43.2129" fill="white" transform="translate(0.196777 0.523438)"/>
</clipPath>
</defs>
</svg>
