<svg width="43" height="44" viewBox="0 0 43 44" fill="none" xmlns="http://www.w3.org/2000/svg">
<g clip-path="url(#clip0_50_20)">
<path d="M42.5342 22.2014C42.5342 20.7062 42.4187 19.2029 42.1722 17.7319H22.3962V26.2021H33.721C33.251 28.934 31.3199 31.6839 29.1089 33.2196L29.5301 38.3821L35.8216 38.3821C39.7891 34.5511 42.5342 28.8935 42.5342 22.2014Z" fill="#4285F4"/>
<path d="M21.8853 43.5449C27.5556 43.5449 32.3376 41.6598 35.8217 38.4058L29.109 33.2198C27.224 34.5183 24.7282 35.1206 21.893 35.1206C16.4081 35.1206 11.4787 31.3738 9.81008 26.3364H3.09741V31.8197C6.66649 39.0081 13.936 43.5449 21.8853 43.5449Z" fill="#34A853"/>
<path d="M9.80999 26.3362C8.84823 23.7183 9.26777 20.3498 10.2295 17.7319L10.6491 12.5694L3.09731 12.1392C-0.159193 18.0952 -0.234044 25.5426 3.02246 31.4987L9.80999 26.3362Z" fill="#FBBC04"/>
<path d="M22.29 8.94469C25.352 8.89778 28.3113 10.0392 30.5289 12.1344L36.6607 6.0599C32.778 2.44806 27.6248 0.462329 22.29 0.524871C14.1694 0.524871 6.74337 4.94676 3.09741 12.1392L10.2315 17.7319C11.9282 12.6894 16.6869 8.94469 22.29 8.94469Z" fill="#EA4335"/>
</g>
<defs>
<clipPath id="clip0_50_20">
<rect width="41.9542" height="43.0213" fill="white" transform="translate(0.580078 0.523438)"/>
</clipPath>
</defs>
</svg>
