<svg width="43" height="43" viewBox="0 0 43 43" fill="none" xmlns="http://www.w3.org/2000/svg">
<path d="M1.18715 27.3863C2.50291 31.7144 5.16488 35.5032 8.7812 38.1949C12.3975 40.8865 16.7771 42.3389 21.2753 42.3381C32.8756 42.3381 42.2786 32.8873 42.2786 21.2308C42.2786 9.57433 32.8756 0.123537 21.2779 0.123537C15.9531 0.121464 10.8264 2.15553 6.93606 5.81387C3.04567 9.47221 0.68229 14.4814 0.324463 19.8272L0.332329 19.843L11.618 24.5104C12.6359 23.8323 13.8414 23.497 15.0609 23.5526L20.2002 16.049L20.1976 15.9435C20.1997 13.8152 21.0407 11.7747 22.536 10.2696C24.0314 8.76442 26.059 7.91756 28.1742 7.91477C30.2893 7.91756 32.3169 8.76442 33.8123 10.2696C35.3076 11.7747 36.1486 13.8152 36.1507 15.9435C36.1499 17.0129 35.937 18.0714 35.5246 19.057C35.1121 20.0426 34.5084 20.9355 33.7488 21.6835C32.9891 22.4314 32.0887 23.0193 31.1005 23.4127C30.1122 23.8062 29.0558 23.9972 27.9932 23.9748L20.6408 29.2516C20.6657 30.2291 20.4474 31.1973 20.0057 32.0682C19.564 32.9391 18.9129 33.6851 18.1117 34.2383C17.3104 34.7915 16.3844 35.1344 15.4179 35.2357C14.4514 35.3371 13.4751 35.1937 12.5777 34.8187C11.7164 34.4575 10.9541 33.8931 10.3553 33.173C9.75655 32.4529 9.33882 31.5984 9.13746 30.6816L1.18977 27.3863H1.18715Z" fill="url(#paint0_linear_50_21)"/>
<path d="M13.0891 33.5863C14.1816 34.0059 15.3935 33.9808 16.4679 33.5164C17.5423 33.0519 18.3946 32.1846 18.8441 31.0985C19.2937 30.0123 19.305 28.7926 18.8758 27.6981C18.4466 26.6036 17.6106 25.7204 16.5451 25.2358C15.4886 24.7922 14.3032 24.7733 13.2333 25.183L15.9158 26.3017C16.3169 26.4697 16.6812 26.7156 16.988 27.0254C17.2947 27.3351 17.5378 27.7026 17.7033 28.1068C17.8689 28.5111 17.9537 28.9442 17.9529 29.3814C17.9522 29.8186 17.8658 30.2514 17.6988 30.6551C17.5318 31.0587 17.2874 31.4253 16.9796 31.7339C16.6718 32.0426 16.3066 32.2871 15.9048 32.4537C15.5031 32.6203 15.0726 32.7057 14.6381 32.7049C14.2036 32.7041 13.7734 32.6172 13.3723 32.4492L10.7764 31.3674C11.2488 32.3683 12.0726 33.1577 13.0891 33.5837V33.5863ZM22.8592 15.9433C22.8599 17.3619 23.4199 18.7224 24.4164 19.726C25.4128 20.7297 26.7643 21.2945 28.1742 21.2966C29.5841 21.2945 30.9356 20.7297 31.9321 19.726C32.9286 18.7224 33.4886 17.3619 33.4893 15.9433C33.4872 14.5255 32.9266 13.1664 31.9302 12.1639C30.9339 11.1614 29.5832 10.5973 28.1742 10.5952C26.7652 10.5973 25.4145 11.1614 24.4182 12.1639C23.4219 13.1664 22.8612 14.5255 22.8592 15.9433V15.9433ZM28.1821 11.9144C28.7069 11.9148 29.2264 12.0191 29.7111 12.2215C30.1959 12.4239 30.6362 12.7204 31.007 13.094C31.3779 13.4676 31.6719 13.9111 31.8724 14.3991C32.0729 14.887 32.176 15.41 32.1756 15.938C32.1753 16.466 32.0716 16.9888 31.8704 17.4765C31.6693 17.9643 31.3746 18.4073 31.0033 18.7805C30.632 19.1536 30.1913 19.4495 29.7063 19.6512C29.2213 19.853 28.7016 19.9566 28.1769 19.9563C27.117 19.9556 26.1009 19.5313 25.3519 18.7767C24.603 18.0222 24.1826 16.9991 24.1833 15.9327C24.184 14.8663 24.6057 13.8438 25.3556 13.0903C26.1055 12.3367 27.1223 11.9137 28.1821 11.9144V11.9144Z" fill="url(#paint1_linear_50_21)"/>
<defs>
<linearGradient id="paint0_linear_50_21" x1="21.3015" y1="0.123535" x2="21.3015" y2="42.3381" gradientUnits="userSpaceOnUse">
<stop offset="0.135417" stop-color="#102B87"/>
<stop offset="1" stop-color="#0073A3"/>
</linearGradient>
<linearGradient id="paint1_linear_50_21" x1="22.1328" y1="10.5952" x2="22.1328" y2="33.8838" gradientUnits="userSpaceOnUse">
<stop stop-color="#0F2E4A"/>
<stop offset="1" stop-color="#07547A"/>
</linearGradient>
</defs>
</svg>
