<svg width="43" height="44" viewBox="0 0 43 44" fill="none" xmlns="http://www.w3.org/2000/svg">
<g clip-path="url(#clip0_50_19)">
<path d="M17.2341 28.3057V15.7623L28.1421 22.034L17.2341 28.3057Z" fill="white"/>
<path d="M41.5214 11.974C41.2827 11.0905 40.8152 10.2849 40.1657 9.63789C39.5163 8.99089 38.7076 8.52518 37.8207 8.28736C34.5544 7.40674 21.4295 7.40674 21.4295 7.40674C21.4295 7.40674 8.30452 7.40674 5.03826 8.28736C4.15134 8.52518 3.34268 8.99089 2.6932 9.63789C2.04373 10.2849 1.57624 11.0905 1.33751 11.974C0.727624 15.2924 0.431665 18.6605 0.45352 22.034C0.431665 25.4074 0.727624 28.7755 1.33751 32.0939C1.57624 32.9775 2.04373 33.783 2.6932 34.43C3.34268 35.077 4.15134 35.5427 5.03826 35.7806C8.30452 36.6612 21.4295 36.6612 21.4295 36.6612C21.4295 36.6612 34.5544 36.6612 37.8207 35.7806C38.7076 35.5427 39.5163 35.077 40.1657 34.43C40.8152 33.783 41.2827 32.9775 41.5214 32.0939C42.1313 28.7755 42.4273 25.4074 42.4054 22.034C42.4273 18.6605 42.1313 15.2924 41.5214 11.974ZM17.2343 28.3028V15.7652L28.1268 22.034L17.2343 28.3028Z" fill="#FC0100"/>
</g>
<defs>
<clipPath id="clip0_50_19">
<rect width="41.9542" height="43.0213" fill="white" transform="translate(0.452393 0.523438)"/>
</clipPath>
</defs>
</svg>
